<?xml version="1.0" standalone="no"?><!DOCTYPE svg PUBLIC "-//W3C//DTD SVG 1.1//EN" "http://www.w3.org/Graphics/SVG/1.1/DTD/svg11.dtd"><svg t="1727080671736" class="icon" viewBox="0 0 1024 1024" version="1.1" xmlns="http://www.w3.org/2000/svg" p-id="2533" xmlns:xlink="http://www.w3.org/1999/xlink" width="200" height="200"><path d="M938.666667 128a42.666667 42.666667 0 0 1 42.666666 42.666667v234.666666a42.666667 42.666667 0 0 1-85.333333 0V213.333333H128v554.666667h106.666667a42.666667 42.666667 0 0 1 42.368 37.674667L277.333333 810.666667v37.589333l151.594667-75.733333a42.666667 42.666667 0 0 1 14.122667-4.266667L448 768h96a42.666667 42.666667 0 0 1 0 85.333333h-85.973333l-204.288 102.144a42.666667 42.666667 0 0 1-61.44-33.237333L192 917.333333V853.333333H85.333333a42.666667 42.666667 0 0 1-42.368-37.674666L42.666667 810.666667V170.666667a42.666667 42.666667 0 0 1 42.666666-42.666667h853.333334z m-204.8 546.133333a42.666667 42.666667 0 0 1 42.666666 42.666667V853.333333a42.666667 42.666667 0 0 1-85.333333 0v-93.866666H597.333333a42.666667 42.666667 0 0 1-42.368-37.674667L554.666667 716.8a42.666667 42.666667 0 0 1 42.666666-42.666667h136.533334z m68.266666-204.8a42.666667 42.666667 0 0 1 42.666667 42.666667v93.866667H938.666667a42.666667 42.666667 0 0 1 42.368 37.674666L981.333333 648.533333a42.666667 42.666667 0 0 1-42.666666 42.666667h-136.533334a42.666667 42.666667 0 0 1-42.666666-42.666667V512a42.666667 42.666667 0 0 1 42.666666-42.666667zM512 426.666667a42.666667 42.666667 0 0 1 0 85.333333H256a42.666667 42.666667 0 0 1 0-85.333333h256zM384 298.666667a42.666667 42.666667 0 1 1 0 85.333333H256a42.666667 42.666667 0 1 1 0-85.333333h128z" p-id="2534"></path></svg>